<?xml version="1.0" encoding="UTF-8" standalone="no"?>
<svg
   width="16"
   height="16"
   version="1.1"
   id="svg1"
   sodipodi:docname="indicator-cpufreq.svg"
   inkscape:version="1.3 (0e150ed6c4, 2023-07-21)"
   xmlns:inkscape="http://www.inkscape.org/namespaces/inkscape"
   xmlns:sodipodi="http://sodipodi.sourceforge.net/DTD/sodipodi-0.dtd"
   xmlns="http://www.w3.org/2000/svg"
   xmlns:svg="http://www.w3.org/2000/svg">
  <sodipodi:namedview
     id="namedview1"
     pagecolor="#ffffff"
     bordercolor="#000000"
     borderopacity="0.25"
     inkscape:showpageshadow="2"
     inkscape:pageopacity="0.0"
     inkscape:pagecheckerboard="0"
     inkscape:deskcolor="#d1d1d1"
     inkscape:zoom="31.1875"
     inkscape:cx="7.9839679"
     inkscape:cy="5.4348697"
     inkscape:window-width="1280"
     inkscape:window-height="738"
     inkscape:window-x="0"
     inkscape:window-y="0"
     inkscape:window-maximized="1"
     inkscape:current-layer="svg1" />
  <defs
     id="defs1">
    <style
       id="current-color-scheme"
       type="text/css">&#10;   .ColorScheme-Text { color:#dfdfdf; } .ColorScheme-Highlight { color:#4285f4; } .ColorScheme-NeutralText { color:#ff9800; } .ColorScheme-PositiveText { color:#4caf50; } .ColorScheme-NegativeText { color:#f44336; }&#10;  </style>
  </defs>
  <path
     style="fill:currentColor;stroke:#4d4d4d;stroke-width:0.2;stroke-dasharray:none"
     class="ColorScheme-Text"
     d="M 3.3482,0 A 0.25823,0.25823 0 0 0 3.094,0.2623 V 1.8297 C 2.4447,1.9384 1.938,2.4451 1.8292,3.0944 H 0.2618 A 0.25823,0.25823 0 1 0 0.2618,3.6108 H 1.8029 V 6.1928 H 0.2618 A 0.25823,0.25823 0 1 0 0.2618,6.7092 H 1.8029 V 9.291 H 0.2618 A 0.2585,0.2585 0 1 0 0.2618,9.808 H 1.8029 V 12.39 H 0.2618 A 0.25823,0.25823 0 1 0 0.2618,12.906 H 1.8292 C 1.938,13.555 2.4447,14.062 3.094,14.171 V 15.738 A 0.25823,0.25823 0 1 0 3.6104,15.738 V 14.197 H 6.1924 V 15.738 A 0.25823,0.25823 0 1 0 6.7088,15.738 V 14.197 H 9.291 V 15.738 A 0.25823,0.25823 0 1 0 9.807,15.738 V 14.197 H 12.389 V 15.738 A 0.2585,0.2585 0 1 0 12.906,15.738 V 14.171 C 13.555,14.062 14.062,13.555 14.17,12.906 H 15.738 A 0.25823,0.25823 0 0 0 16,12.644 0.25823,0.25823 0 0 0 15.738,12.39 H 14.197 V 9.808 H 15.738 A 0.25823,0.25823 0 0 0 16,9.545 0.25823,0.25823 0 0 0 15.738,9.291 H 14.197 V 6.7092 H 15.738 A 0.25823,0.25823 0 0 0 16.001,6.4472 0.25823,0.25823 0 0 0 15.739,6.193 H 14.198 V 3.611 H 15.739 A 0.25823,0.25823 0 0 0 16.001,3.3488 0.25823,0.25823 0 0 0 15.739,3.0946 H 14.171 C 14.062,2.4453 13.555,1.9386 12.906,1.8298 V 0.2624 A 0.25823,0.25823 0 0 0 12.643,2e-4 0.25823,0.25823 0 0 0 12.389,0.2625 V 1.8036 H 9.807 V 0.2625 A 0.25823,0.25823 0 0 0 9.545,2e-4 0.25823,0.25823 0 0 0 9.291,0.2625 V 1.8036 H 6.7094 V 0.2625 A 0.25823,0.25823 0 0 0 6.447,2e-4 0.25823,0.25823 0 0 0 6.1928,0.2625 V 1.8036 H 3.6108 V 0.2625 A 0.25823,0.25823 0 0 0 3.3486,2e-4 Z"
     id="path1" />
</svg>
