<?xml version="1.0" encoding="UTF-8" standalone="no"?>
<svg
   width="22"
   height="22"
   version="1.1"
   id="svg1"
   sodipodi:docname="indicator-cpufreq-50.svg"
   inkscape:version="1.3 (0e150ed6c4, 2023-07-21)"
   xmlns:inkscape="http://www.inkscape.org/namespaces/inkscape"
   xmlns:sodipodi="http://sodipodi.sourceforge.net/DTD/sodipodi-0.dtd"
   xmlns="http://www.w3.org/2000/svg"
   xmlns:svg="http://www.w3.org/2000/svg">
  <sodipodi:namedview
     id="namedview1"
     pagecolor="#ffffff"
     bordercolor="#000000"
     borderopacity="0.25"
     inkscape:showpageshadow="2"
     inkscape:pageopacity="0.0"
     inkscape:pagecheckerboard="0"
     inkscape:deskcolor="#d1d1d1"
     inkscape:zoom="22.681818"
     inkscape:cx="11.022044"
     inkscape:cy="11"
     inkscape:window-width="1280"
     inkscape:window-height="738"
     inkscape:window-x="0"
     inkscape:window-y="0"
     inkscape:window-maximized="1"
     inkscape:current-layer="svg1" />
  <defs
     id="defs1">
    <style
       id="current-color-scheme"
       type="text/css">&#10;   .ColorScheme-Text { color:#444444; } .ColorScheme-Highlight { color:#4285f4; } .ColorScheme-NeutralText { color:#ff9800; } .ColorScheme-PositiveText { color:#4caf50; } .ColorScheme-NegativeText { color:#f44336; }&#10;  </style>
  </defs>
  <path
     style="fill:currentColor;stroke:#b3b3b3;stroke-width:0.2;stroke-dasharray:none"
     class="ColorScheme-Text"
     d="m6.3477 3a0.25823 0.25823 0 0 0 -0.2539 0.2617v1.5684c-0.6493 0.1087-1.155 0.6144-1.2637 1.2637h-1.5684a0.25823 0.25823 0 1 0 0 0.5175h1.541v2.5821h-1.541a0.25823 0.25823 0 1 0 0 0.5156h1.541v2.582h-1.541a0.25823 0.25823 0 1 0 0 0.516h1.541v2.582h-1.541a0.25823 0.25823 0 1 0 0 0.517h1.5684c0.1087 0.65 0.6144 1.155 1.2637 1.264v1.568a0.25823 0.25823 0 1 0 0.5175 0v-1.541h2.5821v1.541a0.25823 0.25823 0 1 0 0.5156 0v-1.541h2.582v1.541a0.25823 0.25823 0 1 0 0.516 0v-1.541h2.582v1.541a0.25823 0.25823 0 1 0 0.517 0v-1.568c0.65-0.109 1.155-0.614 1.264-1.264h1.568a0.25823 0.25823 0 0 0 0.262 -0.261 0.25823 0.25823 0 0 0 -0.262 -0.256h-1.541v-2.582h1.541a0.25823 0.25823 0 0 0 0.262 -0.262 0.25823 0.25823 0 0 0 -0.262 -0.254h-1.541v-2.582h1.541a0.25823 0.25823 0 0 0 0.262 -0.2617 0.25823 0.25823 0 0 0 -0.262 -0.2539h-1.541v-2.5821h1.541a0.25823 0.25823 0 0 0 0.262 -0.2636 0.25823 0.25823 0 0 0 -0.262 -0.2539h-1.568c-0.109-0.6493-0.614-1.155-1.264-1.2637v-1.5684a0.25823 0.25823 0 0 0 -0.263 -0.2617 0.25823 0.25823 0 0 0 -0.254 0.2617v1.541h-2.582v-1.541a0.25823 0.25823 0 0 0 -0.262 -0.2617 0.25823 0.25823 0 0 0 -0.254 0.2617v1.541h-2.582v-1.541a0.25823 0.25823 0 0 0 -0.2617 -0.2617 0.25823 0.25823 0 0 0 -0.2539 0.2617v1.541h-2.5821v-1.541a0.25823 0.25823 0 0 0 -0.2636 -0.2617zm0.1523 9h9c0.277 0 0.5 0.223 0.5 0.5s-0.223 0.5-0.5 0.5h-9c-0.277 0-0.5-0.223-0.5-0.5s0.223-0.5 0.5-0.5zm0 3h9c0.277 0 0.5 0.223 0.5 0.5s-0.223 0.5-0.5 0.5h-9c-0.277 0-0.5-0.223-0.5-0.5s0.223-0.5 0.5-0.5z"
     id="path1" />
</svg>
