<?xml version="1.0" encoding="UTF-8" standalone="no"?>
<svg
   width="22"
   height="22"
   version="1.1"
   id="svg1"
   sodipodi:docname="indicator-cpufreq.svg"
   inkscape:version="1.3 (0e150ed6c4, 2023-07-21)"
   xmlns:inkscape="http://www.inkscape.org/namespaces/inkscape"
   xmlns:sodipodi="http://sodipodi.sourceforge.net/DTD/sodipodi-0.dtd"
   xmlns="http://www.w3.org/2000/svg"
   xmlns:svg="http://www.w3.org/2000/svg">
  <sodipodi:namedview
     id="namedview1"
     pagecolor="#ffffff"
     bordercolor="#000000"
     borderopacity="0.25"
     inkscape:showpageshadow="2"
     inkscape:pageopacity="0.0"
     inkscape:pagecheckerboard="0"
     inkscape:deskcolor="#d1d1d1"
     inkscape:zoom="13.208291"
     inkscape:cx="2.1955906"
     inkscape:cy="10.485838"
     inkscape:window-width="1280"
     inkscape:window-height="738"
     inkscape:window-x="0"
     inkscape:window-y="0"
     inkscape:window-maximized="1"
     inkscape:current-layer="svg1" />
  <defs
     id="defs1">
    <style
       id="current-color-scheme"
       type="text/css">&#10;   .ColorScheme-Text { color:#dfdfdf; } .ColorScheme-Highlight { color:#4285f4; } .ColorScheme-NeutralText { color:#ff9800; } .ColorScheme-PositiveText { color:#4caf50; } .ColorScheme-NegativeText { color:#f44336; }&#10;  </style>
  </defs>
  <path
     style="fill:currentColor;stroke:#333333;stroke-width:0.2;stroke-dasharray:none"
     class="ColorScheme-Text"
     d="m6.3482 3a0.25823 0.25823 0 0 0 -0.2542 0.2623v1.5674c-0.6493 0.1087-1.156 0.6154-1.2648 1.2647h-1.5674a0.25823 0.25823 0 1 0 0 0.5164h1.5411v2.582h-1.5411a0.25823 0.25823 0 1 0 0 0.5164h1.5411v2.582h-1.5411a0.25823 0.25823 0 1 0 0 0.5164h1.5411v2.582h-1.5411a0.25823 0.25823 0 1 0 0 0.5164h1.5674c0.10876 0.64926 0.61551 1.156 1.2648 1.2648v1.5674a0.25823 0.25823 0 1 0 0.5164 0v-1.5411h2.582v1.5411a0.25823 0.25823 0 1 0 0.5164 0v-1.5411h2.582v1.5411a0.25823 0.25823 0 1 0 0.5164 0v-1.5411h2.582v1.5411a0.25823 0.25823 0 1 0 0.5164 0v-1.5674c0.64926-0.10876 1.156-0.61551 1.2648-1.2648h1.5674a0.25823 0.25823 0 0 0 0.26223 -0.26223 0.25823 0.25823 0 0 0 -0.26223 -0.25417h-1.5411v-2.582h1.5411a0.25823 0.25823 0 0 0 0.26223 -0.26223 0.25823 0.25823 0 0 0 -0.26223 -0.25417h-1.5411v-2.582h1.5411a0.25823 0.25823 0 0 0 0.263 -0.262 0.25823 0.25823 0 0 0 -0.262 -0.2542h-1.5411v-2.582h1.5411a0.25823 0.25823 0 0 0 0.262 -0.2622 0.25823 0.25823 0 0 0 -0.262 -0.2542h-1.5674c-0.109-0.6493-0.616-1.156-1.265-1.2648v-1.5674a0.25823 0.25823 0 0 0 -0.263 -0.2622 0.25823 0.25823 0 0 0 -0.254 0.2623v1.5411h-2.582v-1.5411a0.25823 0.25823 0 0 0 -0.262 -0.2623 0.25823 0.25823 0 0 0 -0.254 0.2623v1.5411h-2.582v-1.5411a0.25823 0.25823 0 0 0 -0.2624 -0.2623 0.25823 0.25823 0 0 0 -0.2542 0.2623v1.5411h-2.582v-1.5411a0.25823 0.25823 0 0 0 -0.2622 -0.2623z"
     id="path1" />
</svg>
